PathFileType	4	(x/y/z)	S09_PSF_T11
DataRate	CameraRate	NumFrames	NumMarkers	Units	OrigDataRate	OrigDataStartFrame	OrigNumFrames
240	240	7	51	mm	240	287	458
Frame#	Time	Sternum			R.Acromium			L.Acromium			Top.Head			R.ASIS			L.ASIS			R.PSIS			L.PSIS			R.Great.Tro			L.Great.Tro			R.Iliac.Crest			L.Iliac.Crest			V.Sacral			R.Thigh.Upper.Post			R.Thigh.Lower.Ant			R.Thigh.Lower.Post			R.Thigh.Upper.Ant			R.Knee.Lat			R.Knee.Med			R.Shank.Upper.Post			R.Shank.Lower.Ant			R.Shank.Lower.Post			R.Shank.Upper.Ant			R.Ankle.Lat			R.Ankle.Med			R.Heel.Upper			R.Heel.Med			R.Heel.Lat			R.Toe.Lat			R.Toe.Med			R.Toe.Tip			L.Thigh.Upper.Post			L.Thigh.Lower.Ant			L.Thigh.Lower.Post			L.Thigh.Upper.Ant			L.Knee.Lat			L.Knee.Med			L.Shank.Upper.Post			L.Shank.Lower.Ant			L.Shank.Lower.Post			L.Shank.Upper.Ant			L.Ankle.Lat			L.Ankle.Med			L.Heel.Upper			L.Heel.Med			L.Heel.Lat			L.Toe.Lat			L.Toe.Med			L.Toe.Tip			Cervical.Spine			Back			
		X1	Y1	Z1	X2	Y2	Z2	X3	Y3	Z3	X4	Y4	Z4	X5	Y5	Z5	X6	Y6	Z6	X7	Y7	Z7	X8	Y8	Z8	X9	Y9	Z9	X10	Y10	Z10	X11	Y11	Z11	X12	Y12	Z12	X13	Y13	Z13	X14	Y14	Z14	X15	Y15	Z15	X16	Y16	Z16	X17	Y17	Z17	X18	Y18	Z18	X19	Y19	Z19	X20	Y20	Z20	X21	Y21	Z21	X22	Y22	Z22	X23	Y23	Z23	X24	Y24	Z24	X25	Y25	Z25	X26	Y26	Z26	X27	Y27	Z27	X28	Y28	Z28	X29	Y29	Z29	X30	Y30	Z30	X31	Y31	Z31	X32	Y32	Z32	X33	Y33	Z33	X34	Y34	Z34	X35	Y35	Z35	X36	Y36	Z36	X37	Y37	Z37	X38	Y38	Z38	X39	Y39	Z39	X40	Y40	Z40	X41	Y41	Z41	X42	Y42	Z42	X43	Y43	Z43	X44	Y44	Z44	X45	Y45	Z45	X46	Y46	Z46	X47	Y47	Z47	X48	Y48	Z48	X49	Y49	Z49	X50	Y50	Z50	X51	Y51	Z51	

287	1.1917	-41.629	1162.1	323.86	-178.98	1404.8	478.08	-200.8	1400.8	166.1	-189.83	1712.6	318.73	-95.481	991.29	448.55	-82.277	1000.8	202.86	-312.43	1014.5	354.83	-300.92	1011.5	266.88	-192.57	907.49	516.58	-136.8	907.51	130.83	-185.76	1071.3	485.92	-196.83	1087	161.74	-325.15	977.23	306.02	-256.58	665.96	473.89	-208.69	551.08	437.3	-282.23	579.73	442.83	-191.27	636.02	467	-259.11	483.2	426.96	-260.66	480.99	304.33	-413.11	371.08	428.8	-389	283.63	414.59	-456.56	309.2	416.56	-352.11	346.56	428.56	-539.48	139.17	392.85	-508.09	138.22	300.22	-610.46	141.62	341.14	-610.75	108.18	312.37	-618.53	111.89	376.79	-475.8	45.448	431.46	-424.22	39.183	327.68	-377.97	43.6	375.14	-124.61	641.6	176.1	-17.539	574.38	183.47	-84.295	561.68	198.31	-55.944	651.25	157.14	-7.7796	499.06	193.17	0.42431	517.71	328.26	-13.819	359.22	186.09	73.791	292.54	199.38	9.6329	285.8	192.57	49.623	366.21	193.64	94.196	104.57	215.96	112.36	104.55	309.11	38.178	62.48	270.85	55.967	41.223	303.17	42.91	33.785	243.22	207.46	64.317	184.46	246.36	80.019	290.93	286.39	111.54	229.65	-269.59	1452.6	337.95	-309.87	1181.9	327.96
288	1.1958	-35.718	1162.2	323.26	-173.44	1404.8	477.5	-194.96	1400.9	165.48	-184.43	1712.6	318.47	-89.332	991.24	447.99	-76.298	1001.3	202.37	-306.32	1014.1	354.38	-294.9	1011.5	266.37	-186.13	906.99	515.86	-130.34	908.2	130.19	-179.72	1071.1	485.39	-190.82	1087.4	161.19	-318.99	977	305.44	-248.89	665.14	473.3	-200.49	550.38	437	-274.15	578.73	442.35	-183.46	635.46	466.49	-250.93	482.3	426.96	-252.49	480.04	304.33	-406.51	372.27	428.98	-383.62	284.4	414.82	-450.86	311.02	416.79	-345.89	346.83	428.7	-536.31	142.01	393.07	-504.44	140.61	300.63	-606.87	146.16	341.07	-607.8	112.96	312.07	-615.81	116.45	376.49	-475.14	46.257	431.31	-423.43	39.243	327.82	-377.68	43.445	375.22	-118.3	642.13	175.49	-11.221	574.96	183.25	-78.016	562.22	197.78	-49.526	651.86	156.84	-1.5564	499.55	192.97	6.2995	518.23	327.99	-8.7624	359.77	185.91	78.129	292.22	199.45	13.936	286.12	192.45	54.717	366.12	193.65	95.994	104.19	215.96	114.04	103.76	309.18	38.968	63.119	270.7	56.44	41.513	303.08	43.284	34.317	243.13	208.54	62.247	184.65	247.69	77.126	291.13	288.37	108.01	229.88	-263.94	1452.6	337.29	-304.04	1181.9	327.27
289	1.2	-29.804	1162.4	322.66	-167.92	1404.8	476.93	-189.13	1401	164.85	-179.02	1712.7	318.21	-83.173	991.26	447.4	-70.346	1001.9	201.86	-300.21	1013.7	353.93	-288.9	1011.6	265.87	-179.62	906.55	515.13	-123.96	908.96	129.51	-173.68	1070.9	484.85	-184.8	1087.9	160.62	-312.82	976.82	304.87	-241.08	664.34	472.77	-192.11	549.73	436.79	-265.91	577.74	441.95	-175.51	634.96	466.06	-242.56	481.43	427.07	-244.08	479.07	304.45	-399.7	373.52	429.22	-378.04	285.26	415.13	-444.94	312.9	417.05	-339.47	347.16	428.93	-532.9	144.94	393.32	-500.51	143.09	301.12	-602.96	150.89	341.01	-604.54	117.94	311.75	-612.81	121.22	376.17	-474.42	47.153	431.15	-422.59	39.327	327.98	-377.4	43.292	375.31	-112.04	642.71	174.84	-4.9596	575.59	182.97	-71.79	562.81	197.22	-43.17	652.5	156.48	4.6198	500.07	192.72	12.148	518.79	327.67	-3.7896	360.35	185.66	82.365	291.94	199.46	18.143	286.49	192.26	59.721	366.08	193.6	97.691	103.84	215.91	115.63	103.07	309.2	39.712	63.731	270.54	56.88	41.822	302.98	43.645	34.831	243.02	209.56	60.286	184.79	248.93	74.397	291.26	290.24	104.62	230.04	-258.3	1452.7	336.62	-298.22	1181.9	326.57
290	1.2042	-23.89	1162.7	322.06	-162.41	1404.9	476.36	-183.3	1401.2	164.24	-173.6	1712.9	317.94	-77.006	991.34	446.78	-64.423	1002.5	201.33	-294.09	1013.4	353.49	-282.92	1011.8	265.38	-173.06	906.15	514.39	-117.66	909.8	128.8	-167.63	1070.8	484.3	-178.78	1088.5	160.06	-306.66	976.7	304.31	-233.15	663.58	472.29	-183.56	549.12	436.69	-257.5	576.77	441.63	-167.43	634.51	465.71	-234.01	480.59	427.27	-235.43	478.07	304.68	-392.68	374.84	429.51	-372.24	286.19	415.53	-438.8	314.86	417.34	-332.84	347.56	429.26	-529.26	147.96	393.61	-496.29	145.65	301.67	-598.7	155.78	340.96	-600.94	123.12	311.43	-609.52	126.19	375.83	-473.63	48.147	430.99	-421.71	39.441	328.14	-377.12	43.136	375.4	-105.85	643.32	174.15	1.2427	576.26	182.62	-65.619	563.44	196.63	-36.881	653.18	156.06	10.739	500.63	192.43	17.987	519.4	327.3	1.0911	360.97	185.34	86.49	291.71	199.4	22.247	286.9	192.01	64.624	366.06	193.47	99.287	103.53	215.83	117.14	102.46	309.16	40.41	64.312	270.37	57.289	42.142	302.86	43.991	35.321	242.91	210.51	58.438	184.87	250.08	71.837	291.33	291.99	101.4	230.14	-252.67	1452.8	335.96	-292.4	1182	325.85
291	1.2083	-17.982	1163	321.47	-156.92	1405	475.81	-177.48	1401.5	163.63	-168.17	1713.1	317.66	-70.837	991.48	446.13	-58.533	1003.1	200.78	-287.99	1013.1	353.07	-276.96	1012	264.9	-166.44	905.81	513.65	-111.44	910.69	128.06	-161.59	1070.7	483.74	-172.77	1089.1	159.5	-300.51	976.62	303.77	-225.1	662.85	471.88	-174.86	548.55	436.71	-248.95	575.81	441.4	-159.24	634.12	465.45	-225.28	479.78	427.57	-226.52	477.04	305.02	-385.44	376.21	429.83	-366.23	287.2	416.01	-432.41	316.88	417.66	-326.01	348.03	429.68	-525.35	151.07	393.93	-491.79	148.28	302.29	-594.06	160.83	340.91	-597	128.48	311.1	-605.9	131.36	375.49	-472.77	49.248	430.83	-420.77	39.593	328.31	-376.83	42.975	375.5	-99.728	643.96	173.43	7.3787	576.96	182.23	-59.51	564.1	196.01	-30.664	653.88	155.58	16.788	501.21	192.11	23.827	520.05	326.91	5.8712	361.62	184.94	90.498	291.5	199.28	26.241	287.34	191.69	69.417	366.07	193.28	100.78	103.25	215.72	118.56	101.94	309.08	41.063	64.857	270.19	57.667	42.467	302.74	44.32	35.783	242.78	211.39	56.705	184.91	251.14	69.446	291.36	293.61	98.339	230.19	-247.06	1453	335.31	-286.58	1182.1	325.14
292	1.2125	-12.082	1163.4	320.88	-151.43	1405.2	475.26	-171.66	1401.8	163.03	-162.72	1713.3	317.38	-64.669	991.68	445.45	-52.677	1003.9	200.2	-281.9	1012.9	352.67	-271.04	1012.3	264.44	-159.77	905.52	512.89	-105.33	911.62	127.29	-155.54	1070.7	483.17	-166.77	1089.8	158.94	-294.37	976.6	303.24	-216.96	662.15	471.55	-166	548.03	436.85	-240.26	574.88	441.25	-150.93	633.79	465.27	-216.38	479.01	427.98	-217.36	475.99	305.49	-377.97	377.63	430.2	-360	288.28	416.58	-425.79	318.97	418	-318.96	348.56	430.19	-521.18	154.26	394.28	-486.98	150.97	302.98	-589.04	166.02	340.87	-592.67	134.03	310.76	-601.94	136.73	375.13	-471.83	50.465	430.66	-419.77	39.789	328.49	-376.53	42.805	375.61	-93.68	644.61	172.68	13.438	577.68	181.78	-53.474	564.79	195.36	-24.527	654.59	155.06	22.752	501.81	191.75	29.678	520.75	326.48	10.542	362.28	184.48	94.381	291.31	199.11	30.119	287.81	191.31	74.094	366.09	193.04	102.17	103	215.58	119.9	101.49	308.97	41.671	65.366	270.01	58.015	42.792	302.62	44.634	36.215	242.66	212.21	55.091	184.9	252.12	67.223	291.34	295.12	95.45	230.2	-241.46	1453.2	334.67	-280.78	1182.3	324.41
293	1.2167	-6.1945	1163.9	320.3	-145.97	1405.5	474.71	-165.86	1402.2	162.44	-157.26	1713.6	317.08	-58.508	991.94	444.72	-46.857	1004.6	199.6	-275.82	1012.7	352.27	-265.15	1012.7	264	-153.06	905.28	512.12	-99.31	912.59	126.49	-149.51	1070.7	482.59	-160.79	1090.5	158.39	-288.25	976.63	302.73	-208.72	661.49	471.29	-157.02	547.56	437.11	-231.45	573.96	441.21	-142.52	633.53	465.2	-207.32	478.27	428.5	-207.94	474.91	306.07	-370.27	379.11	430.59	-353.54	289.43	417.22	-418.92	321.1	418.36	-311.7	349.15	430.79	-516.71	157.52	394.66	-481.86	153.71	303.74	-583.59	171.35	340.84	-587.95	139.75	310.42	-597.6	142.28	374.75	-470.8	51.808	430.48	-418.7	40.039	328.67	-376.2	42.62	375.72	-87.719	645.28	171.91	19.408	578.41	181.3	-47.521	565.49	194.7	-18.483	655.31	154.48	28.613	502.4	191.37	35.542	521.48	326.02	15.097	362.94	183.97	98.136	291.14	198.89	33.875	288.29	190.88	78.645	366.11	192.74	103.46	102.77	215.42	121.15	101.1	308.83	42.234	65.836	269.84	58.335	43.111	302.5	44.929	36.616	242.53	212.96	53.597	184.86	253.02	65.166	291.29	296.51	92.732	230.17	-235.88	1453.5	334.03	-274.98	1182.6	323.68
